<?xml version="1.0" standalone="no"?>
<!DOCTYPE svg PUBLIC "-//W3C//DTD SVG 1.1//EN" "http://www.w3.org/Graphics/SVG/1.1/DTD/svg11.dtd" >
<svg xmlns="http://www.w3.org/2000/svg">
<metadata>Generated by IcoMoon</metadata>
<defs>
<font id="icomoon" horiz-adv-x="1024">
<font-face units-per-em="1024" ascent="960" descent="-64" />
<missing-glyph horiz-adv-x="1024" />
<glyph unicode="&#x20;" horiz-adv-x="512" d="" />
<glyph unicode="&#xe900;" glyph-name="image_picture_icon_143003" d="M221 828.2c-35.8-10.4-64.8-34.6-80.6-67.2-13.2-26.6-12.4-8.6-12.4-313 0-309.2-1-286.8 14.6-317 15.8-30.6 48.4-56.2 81.6-64 19-4.4 556.4-4.4 575.4 0 35.4 8.4 67.8 34.6 84 68 13.2 26.6 12.4 8.6 12.4 313 0 308.4 1 287-14.2 316.2-14.8 28.2-40 50.4-70.4 61.6l-14.4 5.2-282 0.4c-263.4 0.4-282.8 0.2-294-3.2zM788.4 739.4c6.2-3.6 11.4-8.8 15-15l5.6-9.4v-534l-5.6-9.4c-3.6-6.2-8.8-11.4-15-15l-9.4-5.6h-534l-9.4 5.6c-6.2 3.6-11.4 8.8-15 15l-5.6 9.4v534l5.4 9.4c5.6 9.2 14.8 16.4 25.2 19.6 3 1 124.2 1.6 269.4 1.4l264-0.4 9.4-5.6zM340.6 658.4c-28-10-44.2-35-42.2-65.2 1.8-25.2 14.8-44.4 37.4-54.8 16.4-7.6 38.6-7.6 54.4 0.2 13.4 6.4 26.4 19.8 32.4 33 6.4 14.2 6 37.8-1 52.6-6.4 13.8-17.6 25.6-30.6 31.8-13.4 6.4-36 7.6-50.4 2.4zM522 505.4c-29-62.8-57.6-124.6-63.6-137.2l-10.6-22.8-31 51.4c-17.2 28.2-31.8 51.2-32.6 51.2-1.6 0-124.8-204.2-127.4-210.8-1.2-3 22.2-3.2 255-3.2 169.2 0 256.2 0.6 256.2 2 0 2.6-190.6 384-192 384-0.6 0-24.8-51.6-54-114.6z" />
<glyph unicode="&#xe901;" glyph-name="bucket" d="M411.8 932.2c-4-0.8-10.2-3.4-14-5.8-3.8-2.2-81.6-79.2-173.2-170.8-116-116.4-168.6-170.4-174.2-179-13.2-20.6-17.4-37.2-17.4-67.6 0-22.2 0.8-28.2 4.8-40.8 9-27.6 15.4-34.8 150.6-169.4 137.4-137 135.2-135.2 167.6-145 22.4-7 53-6.6 75 1 8.8 3 21.4 8.8 28 12.6 9 5.4 53.6 48.6 180.4 175.4 179.2 178.8 176.4 176 176.6 195.2 0 19.8 3.2 16.4-189.2 208.4-99 98.6-182.4 180.6-185.8 182.2-7.8 3.8-20.2 5.2-29.2 3.6zM707.6 536.6c-1.6-2.2-56.4-2.6-289.8-2.6-158.4 0-287.8 0.6-287.8 1.4 0 1 65.4 67 145.4 147l145.6 145.6 144.4-144.4c111.4-111.4 144-145 142.2-147zM820 446.6c-8.8-3.6-15.4-11.2-30.4-35.2-36.8-59.4-62.6-117.6-65-147-4.2-54 37.8-106.2 92-114.8 55.2-8.6 108.6 30 120.8 87.2 4 19.4 2.4 36.4-6.4 62.6-13 38.8-65.2 132.8-79.4 143-6.4 4.4-25 7-31.6 4.2zM115.6 106c-10.4-3.2-19.6-10.4-25.2-19.6-4.4-7.6-5.4-11.8-5.4-22.4 0-17 6.8-29.4 20.6-37.4l9.4-5.6h397c365.8 0 397.4 0.2 403 3.4 16 8.6 23.8 21.6 24 39.6 0 17-6.8 29.4-20.6 37.4l-9.4 5.6-394 0.4c-216.8 0.2-396.4-0.4-399.4-1.4z" />
<glyph unicode="&#xe902;" glyph-name="shapes" d="M131 730.8c-71.4-126-130.2-230.4-130.6-232-0.6-2.4 34-2.8 262.4-2.8 144.8 0 263.2 0.6 263.2 1.6 0 2.8-261.2 461.2-263 461.8-1.2 0.2-60.4-102.6-132-228.6zM343.4 694l76.6-135-156.2-0.6c-86-0.2-156.8 0-157.2 0.4s34.4 63 77.6 139.2c64.4 113.6 78.8 137.6 80.6 134.6 1-2 36.4-64.4 78.6-138.6zM735.2 956.8c-93.8-17.4-169.4-88.2-193.2-180.8-16.6-64.6-4-139 33-195.4 15-22.8 46.8-54.6 69.6-69.6 56.4-37 130.8-49.6 195.4-33 86.8 22.4 153.8 89.4 177.4 177.4 4.8 17.8 5.2 23.2 5.4 57.6 0.2 43.2-2.4 59.6-14 90-29.2 76-96.2 134.4-174.8 152-21.2 4.8-77.8 5.8-98.8 1.8zM834.4 890.2c82-26.4 134.4-105 127.2-191.2-1.8-23-6.4-39.2-17.6-62.4-46-95-159.8-131.6-251.8-81.4-65.2 35.8-103.8 110.2-94.4 181.8 8.6 63.4 46 115.4 102.8 143 11.2 5.4 26.2 11.2 33.4 13 31 8 70 6.8 100.4-2.8zM570 163v-227h454v454h-454v-227zM964 162v-166h-332v332h332v-166zM63.8 269.6c-34.4-59.6-62.8-110.2-63.2-112.4-0.2-2.6 23.6-45.8 62-112.2l62.6-108 258.2-1 63.4 110c35 60.4 63.2 110.8 62.8 111.8-0.4 0.8-29 50.8-63.6 110.8l-63 109.4h-256.6l-62.6-108.4zM392.6 236c38-65.6 45.4-79.6 43.8-83-1.2-2.2-21.8-38.2-46-80l-44-76-91.6-0.4-91.8-0.6-46.2 80.4-46 80.2 45.8 79.6 46 79.8 92.2-0.4 92.2-0.6 45.6-79z" />
<glyph unicode="&#xe903;" glyph-name="font-1" d="M0 800v-96h128v64h128v-640h-128v-128h384v128h-128v640h128v-64h128v192h-640v-96zM512 480v-96h128v64h64v-320h-64v-128h256v128h-64v320h64v-64h128v192h-512v-96z" />
<glyph unicode="&#xe904;" glyph-name="share_1" d="M773 956.8c-68.6-15-124.4-71.8-138.2-140.6-4.6-22.8-3-64.8 3-86 2.4-8 4-15 3.8-15.2-0.4-0.4-66.8-40.2-147.6-88.8l-146.8-88.2-10 10.2c-12.6 12.8-29.4 24.2-50 33.8-27.2 12.8-37.8 15-75.2 15s-48-2.2-75.2-15c-41.4-19.2-69.6-47.4-88.8-88.8-12.8-27.2-15-37.8-15-75.2s2.2-48 15-75.2c19.2-41.4 47.4-69.6 88.8-88.8 27-12.6 38-14.8 74.2-15 38.8 0 55.4 3.8 86 19.6 17 8.8 23.2 13.6 41.4 31.6l21.4 21 138.6-70.8c76.2-39 139-71.2 139.2-71.4 0.4-0.4-0.8-7.6-2.6-16-2.8-12.2-3.2-21.4-2.4-43.8 1.2-31.8 4-44.2 15.4-68.4 19.2-41.4 47.4-69.6 88.8-88.8 27.2-12.8 37.8-15 75.2-15s48 2.2 75.2 15c41.4 19.2 69.6 47.4 88.8 88.8 12.8 27.2 15 37.8 15 75.2s-2.2 48-15 75.2c-19.2 41.4-47.4 69.6-88.8 88.8-27.2 12.8-37.8 15-75.2 15-29 0-35-0.6-49-4.8-34.8-10.2-70.6-33.8-91-59.6l-5-6.4-139 71.2c-76.4 39-139.6 71.6-140.4 72.4-0.8 0.6 0 7 1.6 14.2 4.8 19.8 2.8 65.8-3.6 87l-4.8 16.2 294 176.8 11-11.2c19.8-20 51.2-38 80.2-46.2 18.6-5 73.4-5 92 0 40.6 11.4 80 39 102.4 72 10.2 15.2 22.2 40.6 27 57.4 5 18.6 5 73.4 0 92-11.4 40.6-39 80-72 102.4-14.8 10-40.4 22.2-56.4 26.6-17.2 4.8-67.4 6-86 1.8zM841 895c21-5.4 36.6-14.6 54-32 24.8-24.6 35-49 35-83s-10.2-58.4-35-83c-24.6-24.8-49-35-83-35s-58.4 10.2-83 35c-24.8 24.6-35 49-35 83s10.2 58.4 35 83c17 17.2 32.8 26.6 53 31.8 14.6 3.8 44.2 4 59 0.2zM241 533c21-5.4 36.6-14.6 54-32 24.8-24.6 35-49 35-83s-10.2-58.4-35-83c-24.6-24.8-49-35-83-35s-58.4 10.2-83 35c-24.8 24.6-35 49-35 83s10.2 58.4 35 83c17 17.2 32.8 26.6 53 31.8 14.6 3.8 44.2 4 59 0.2zM841 231c21-5.4 36.6-14.6 54-32 24.8-24.6 35-49 35-83s-10.2-58.4-35-83c-24.6-24.8-49-35-83-35s-58.4 10.2-83 35c-24.8 24.6-35 49-35 83s10.2 58.4 35 83c17 17.2 32.8 26.6 53 31.8 14.6 3.8 44.2 4 59 0.2z" />
<glyph unicode="&#xe905;" glyph-name="delete-1" d="M92 956.8c-28-6-54.2-24.2-71.4-49.2-24.2-35.6-26.8-79.8-7.2-119.6 7-14.4 14.2-22 169.4-177.4l162.2-162.6-162.2-162.4c-155.2-155.6-162.4-163.2-169.4-177.6-27-54.8-10.8-117.4 39-151.4 35.6-24.2 79.8-26.8 119.6-7.2 14.4 7 22 14.2 177.6 169.4l162.4 162.2 162.6-162.2c155.4-155.2 163-162.4 177.4-169.4 39.2-19.4 83.4-17 118.8 6.6 50.6 34 67 96.8 39.8 152-7 14.4-14.2 22-169.4 177.6l-162.2 162.4 162.2 162.6c155.2 155.4 162.4 163 169.4 177.4 27 54.8 10.8 117.4-39 151.4-35.6 24-79.4 26.8-119.6 7.4-14.4-7-21-13.2-177.4-169.6l-162.6-162.2-162.4 162.2c-155.6 155.2-163.2 162.4-177.6 169.4-25.6 12.6-52.8 16.2-80 10.2z" />
<glyph unicode="&#xe906;" glyph-name="download" d="M496 909.4c-9.8-3.2-26.6-20.4-29.6-30.6-1.8-6.4-2.4-71.2-2.4-274v-265.8l-53.6 53.4c-57.2 57.2-60.8 59.8-79.6 59.8-34 0-57.2-35.6-43.2-66.6 3-6.4 30.2-34.8 102.6-106.8 105.2-104.6 103.2-102.8 122.2-102.8 18.4 0 18.8 0.2 122.4 103.6 65.4 65.2 98.8 100 101.4 105.4 5 10.6 5 29.4 0 40-7.8 16.6-24.6 27.2-43.2 27.2s-22.4-2.6-79.4-59.8l-53.6-53.4v265.8c0 199.6-0.6 267.8-2.4 273.6-3.4 11.8-17.6 26.6-29 30.4-10.6 3.6-22.4 3.8-32.6 0.6zM80 493.4c-10.4-3.4-26.6-20.4-29.6-31.4-2-7-2.4-55.8-2-213l0.6-204 6.4-13.4c8.8-18.6 20-30.2 38.2-39.2l15.2-7.4h806.4l15.2 7.4c18.2 9 29.4 20.6 38.2 39.2l6.4 13.4 0.6 204c0.4 152.6 0 206.2-1.8 212.6-3.4 12.2-17.4 27.2-29.2 31.2-19.4 6.6-35 3-49.6-11.8-6.4-6.2-11-13-12.6-18.2-1.8-6.2-2.4-54.4-2.4-195.6v-187.2h-736v187.2c0 139-0.6 189.4-2.4 195.2-3.4 11.8-17.6 26.6-29 30.4-10.6 3.6-22.4 3.8-32.6 0.6z" />
<glyph unicode="&#xe907;" glyph-name="eraser-tool-for-school" d="M581.2 957c-16.4-4.2-35.2-13.6-42.4-21.4-3.4-3.6-110.6-142.6-238.2-308.8-174.4-227-232.8-304.4-235.4-312-5.6-16-6.2-42.2-1.4-68.6 4.2-24 7.6-31 20.8-43.6 10-9.8 263.2-204.2 274.4-210.8 15.6-9.2 33-13.8 51.8-13.8 27.4 0 46.2 7.6 63.4 25.4 11.6 12 488 632.4 489.4 637 1.4 5.6-5.2 40.6-10.8 56.2-7.8 21.4-17.8 38.4-31.6 52.6-14.8 15.4-237 186-253.8 195-6.6 3.4-17.4 8-24.2 10.2-16.8 5-47 6.4-62 2.6zM654.8 914.4c8.6-2.8 20.8-8.4 27.2-12.6s54.8-38.8 107.4-77c105.6-76.8 121.4-90.4 132.8-113.8 6.6-13.4 6.8-14.8 6.8-37 0-36.2 0.2-35.8-112.6-183.2l-81.2-106.2-12.6 9.2c-6.8 5-87.2 66.4-178.4 136.4s-168.2 129-171.4 131.2c-4.4 3.2-5.2 4.8-3.4 6.8 1 1.6 37 49.6 79.6 106.8s81.6 108.4 86.8 113.6c15.2 16 36.8 27.2 60.2 31.4 14.4 2.8 41.4 0.2 58.8-5.6zM731.2 321c-127.6-166.2-236.8-308-242.8-315.4-30.6-38.2-80.8-47.8-127.4-24.6-9.2 4.4-58.4 41-143 106-71 54.6-132.4 102.6-136.6 106.6-4 4-7.4 6.4-7.4 5.4s3.6-9 8-18c5.4-11.6 12-20.8 21.4-30.8 20.4-21.4 240.6-190 261.6-200.2 46-22.4 95.8-17 129.8 14.2 7 6.4 96.2 120.6 226.4 290.2 118.4 154 218.6 284.8 222.8 291 9 12.6 14.8 29 18 50.6 5.4 34.6 23.2 55.8-230.8-275z" />
<glyph unicode="&#xe908;" glyph-name="import" d="M502 956.2c-9.6-3-17.4-8-24-15.4-14-16-12.8 6.4-14-285.4l-1-263.4-37 37c-31.6 31.6-38.4 37.4-46.8 40.2-27.2 9.2-56.4-5.6-64.4-32.8-3.6-11.6-3.6-17.2 0.4-30.6 3-10.4 6.8-14.4 84.2-92.2 55.4-55.4 84.2-83 91-86.6 12.8-7 30.6-7.4 44.8-1.2 14.4 6.4 168.6 160.6 175 175 5.2 11.8 5.6 28.8 0.8 40.8-4.6 11.2-20.2 25-32 28.4-11 3-27.8 1.6-37.2-3-3.8-2-22.4-18.8-41.2-37.6l-34.6-34.2-0.4 263-0.6 262.8-5.8 10.6c-6.6 11.8-15.2 19.2-27.4 23.4-8.8 3.2-21.6 3.6-29.8 1.2zM166 681.8c-54.4-5.2-110.4-32.8-136.4-67.2-12.6-16.6-17-24.4-23.2-41l-5.4-14.6-0.6-241.4c-0.6-270.4-1.2-257.4 13.8-287.2 23.4-46.2 75.8-79.8 139.8-89.6 28.4-4.2 687.6-4.2 716 0 64 9.8 116.4 43.4 139.8 89.6 14.8 29.4 14.2 17 14.2 280.8 0 227.4-0.2 236.8-3.8 251.4-2.2 8.4-6.2 20-9.2 26-23.6 50.2-84.6 86.6-156 93.4-12 1-60 2-106.4 2h-84.6v-102h92.6c101.2 0 109-0.8 132.6-11.8 16-7.4 30.2-20.4 32.8-30 2.8-10.2 2.8-448.6-0.2-458.8-4.2-15.6-25.8-30.6-55.8-38.8-12.2-3.4-33-3.6-354-3.6s-341.8 0.2-354 3.6c-30 8.2-51.6 23.2-55.8 38.8-3 10.2-3 448.6-0.2 458.8 2.6 9.6 16.8 22.6 32.8 30 23.6 11 31.4 11.8 132.8 11.8h92.4v102l-88.4-0.2c-48.8-0.2-96.2-1-105.6-2z" />
<glyph unicode="&#xe909;" glyph-name="floppy-disk" d="M69 957.2c-16.8-4.2-29.4-11.4-42-24.2-13-13-21-27.4-24.8-44.6-3.2-15.2-3.2-865.6 0-880.8 7.4-34.4 35-62 69.4-69.4 15-3.2 865.6-3.2 880.8 0 34 7.2 62.2 35.6 69.4 69.4 1.6 7.6 2.2 110.8 2.2 356.6 0 312.8-0.4 346.6-3.2 352.4-4.4 8.8-230 234.8-239.2 239.6-7.2 3.8-15.2 3.8-355 3.6-271.2-0.2-349.8-0.6-357.6-2.6zM194 798c0-67.2 0.8-105.4 2.2-112.4 7.2-34.2 35-62 69.4-69.4 14.8-3.2 397.8-3.2 412.8 0 34 7.2 62.2 35.6 69.4 69.4 1.4 7 2.2 45.6 2.2 112.4 0 80.2 0.6 102 2.4 102 1.4 0 49.6-47 107-104.4l104.6-104.6v-671.4l-4.4-8c-9-15.8-7-15.6-114.6-15.6h-95v184c0 129.4-0.6 187-2.2 194.4-7.4 34.4-35.2 62.2-69.4 69.4-15 3.2-398 3-412.8 0-34.4-7.4-62.2-35.2-69.4-69.4-1.6-7.4-2.2-67-2.2-194.4v-184h-55.2c-53.6 0-55.6 0.2-63.2 4.4-4.8 2.8-9.6 7.6-11.8 12-3.6 7.2-3.8 19-3.8 436 0.2 408.8 0.4 429 3.8 435.4 2 3.6 7 8.8 11.4 11.4 7.8 4.8 8.4 4.8 63.4 4.8h55.4v-102zM562 787v-113h-284.4l-8 4.4c-4.8 2.8-9.6 7.6-11.8 12-3.6 7-3.8 13.2-3.8 108.6v101h308v-113zM690 798.8c0-101.2 0-101.2-4.4-109.2-7.2-12.6-15.2-15.6-41.6-15.6h-22v226h68v-101.2zM674 382c12.6-6.4 16-15.4 16-42v-22h-436v22.6c0.2 26.2 2.8 33.2 15.2 40.6l7.8 4.8h194.6c191 0 194.8 0 202.4-4zM690 127v-131h-436v262h436v-131z" />
<glyph unicode="&#xe90a;" glyph-name="move" d="M500 957.8c-6-2.4-131-126.6-135.2-134.2-3.6-6.8-3.6-18.2 0-25.2 1.6-3 8.6-11 15.8-17.8 12.6-12.2 13.4-12.6 23.4-12.6 5.6 0 12.6 1.2 15.6 2.8s15.8 13.4 28.4 26l23 23.2 1-88.4 1-88.6 4.8-6.4c7.8-10.4 15.8-13 37.2-12.2 21 0.6 27.4 3.6 33.4 15.8 3.2 6.2 3.6 14.8 3.6 92.8v85.8l26.6-26.2c29-28.8 33.8-31.4 48.8-26.4 8.6 2.8 29.4 22.6 32.6 30.8 2.8 7.4 2.4 18.2-0.8 24.6-4.4 8.4-131.4 134-137.8 136.4-6.8 2.4-14.8 2.4-21.4-0.2zM139 595c-3.4-1.8-34.6-31.6-69.6-66.6-67.6-67.8-70.8-71.8-68.4-87.2 1.2-7.6 6.6-13.6 65.6-72.8 35.4-35.6 66.8-66 69.8-67.6 7.2-3.8 21.6-3.6 27.6 0.4 9.4 6.2 22.4 19.8 26.2 27.2 8.4 16.4 4.6 24.2-26 54.6l-24.2 24 177 2 6.4 4.8c10.4 7.8 13 15.8 12.2 36.8-0.4 15.2-1.4 19.6-5 24.6-9.2 12.8-9.2 12.8-104 12.8h-85.6l26.4 25.8c28.2 27.6 30.6 31.8 27.8 47.2-1.6 8.4-20 29-30 33.8-8.4 4-18.4 4-26.2 0.2zM858.4 594.6c-10-4.8-28-25.4-29.6-33.6-2.8-15.4-0.4-19.6 27.8-47.2l26.4-25.8h-86c-94.8 0-94.6 0-103.8-12.6-3.6-5-4.2-8.6-4.2-27 0-19 0.6-22.2 4.4-27.6 9.2-12.8 9-12.8 104.8-12.8h86.8l-25.4-25.4c-31-31.2-34.2-38-25.8-54.2 3.8-7.4 16.8-21 26.2-27.2 6-4 20.4-4.2 27.6-0.4 3 1.6 34.4 32 69.8 67.6 59.6 60 64.4 65.2 65.6 73.2 1 6.4 0.4 10.4-2.8 17-5 10.2-128.2 134-136.8 137.2-8 3-17.4 2.6-25-1.2zM493 525.2c-14.6-3.6-26.2-10.2-37.2-21.2-31-31-31-81 0.2-112 45.6-45.8 122.4-21.2 134.2 42.8 10.2 55.4-42 104-97.2 90.4zM487.8 268c-4.8-2.4-8.8-7-11.6-12.6-4-8.4-4.2-11.4-4.2-94.6v-85.8l-24.4 24.4c-13.6 13.2-26.6 25.2-29 26.4s-9 2.2-14.6 2.2c-10 0-10.8-0.4-23.4-12.4-7.2-7-14.2-15-15.8-18-3.6-7-3.6-18.4 0-25.2 1.6-3 32-34.4 67.6-69.8 55.4-55.2 65.6-64.4 72-65.6 16.2-3 16.4-2.8 86.2 66.8 36.2 35.8 67 67.6 68.6 70.6 3.2 6.2 3.6 17 1 24-3 8-19.8 25-29.2 29.6-7 3.4-10.8 4-17.4 3-7.6-1.2-11.6-4.6-35-27.6l-26.6-26.2v85.6c0 94.6 0 94.6-12.8 103.8-5.2 3.6-9.2 4.4-25.2 5-15.8 0.4-20.2-0.2-26.2-3.6z" />
<glyph unicode="&#xe90b;" glyph-name="reload" d="M377 867.4c-88.4-65-126.2-93.8-126.6-96.8-0.4-3.2 2.4-6.6 11-13 37.6-28.8 240-176.4 243-177.2 2-0.4 5 0.2 6.6 1.6 2.6 2.2 3 11.8 3 64.2v61.8l16.6-1c64.8-4.8 132.4-30.8 180.4-69.6 150.6-121.8 164.6-342 30.4-479.2-47.4-48.4-103.2-79-171.4-93.6-24.2-5-95.2-5-121 0.2-23 4.6-61.4 17.4-79.8 26.6-94.2 47-154.4 125-178 230.4-5.6 25.4-11.2 36.6-23.4 47-16.8 14.2-44 18-64 8.8-15.2-7-22.2-13.4-29.8-27.8-5.8-11-6.6-14.4-6.6-26.6 0.4-31 17.8-90.2 40.2-135.2 67.4-136.2 193.8-227.4 344.4-248.4 28.4-3.8 95.8-3.2 123 1.2 98.6 16 180.6 57.2 249.2 125.2 38.8 38.4 66 77 90 127 29.2 61.2 42.2 119.8 42.4 190 0 44-3.4 72-13.6 112.4-43.2 168-180.8 296.4-352 328.4-19.2 3.6-59.2 8.2-72.4 8.2h-4.6v61.6c0 63.2-0.4 66.4-7.8 66.4-1.8 0-59.8-41.8-129.2-92.6z" />
<glyph unicode="&#xe90c;" glyph-name="trash" d="M424.2 956.8c-16.6-4.4-33-14.2-44.8-26.6-19.8-20.8-27.4-42-27.4-76.6v-21.4l-195-1.2-13.4-6.4c-18.6-8.8-30.2-20-39.2-38.2l-7.4-15.2v-71.4c0-69 0.2-71.6 4.2-77 8-10.8 14-13.6 30-14.4l14.8-0.8v-7.4c0.2-29.4 28.4-585.2 30-592.2 8-33 39.2-62.6 73.6-69.8 15-3 509.8-3 524.8 0 34.4 7.2 65.6 36.8 73.6 69.8 1.6 7 29.8 562.8 30 592.2v7.4l14.8 0.8c16 0.8 22 3.6 30 14.4 4 5.4 4.2 8 4.2 77v71.4l-7.4 15.2c-9 18.2-20.6 29.4-39.2 38.2l-13.4 6.4-195 1.2v21.4c0 34.6-7.6 55.8-27.4 76.6-12.2 12.8-28.2 22.2-45.6 26.8-16.8 4.2-158.6 4.2-174.8-0.2zM593.2 890.8c12-8.8 13.8-13.4 14.4-37l0.8-21.8h-192.4v18.8c0 20.4 1.8 27.4 8.6 35 9.2 10 11.2 10.2 89.8 9.6 70.6-0.4 73.6-0.6 78.8-4.6zM859 763c5-4.8 5-4.8 5-48v-43h-704v43c0 43.2 0 43.2 5 48l4.8 5h684.4l4.8-5zM814 604.6c0.2-16.6-26.4-564.6-27.8-574-2.2-14.6-6.4-21.2-17.4-26.6-8-4-11.4-4-256.8-4s-248.8 0-256.8 4c-11 5.4-15.2 12-17.4 26.6-1.4 9.4-28 557.4-27.8 574 0 3.2 15.8 3.4 302 3.4s302-0.2 302-3.4zM339 541.2c-8.2-3.6-16.6-13.8-18-21.8-0.6-3.6-0.8-102.8-0.6-220.8 0.6-212.8 0.6-214.4 4.8-219.8 7.8-10.6 14.2-13.8 26.8-13.8s19 3.2 26.8 13.8c4.2 5.4 4.2 6.4 4.2 225.2s0 219.8-4.2 225.2c-2.2 3-6.4 7.4-9.2 9.4-6.6 5-22.6 6.4-30.6 2.6zM499 541.2c-8.2-3.6-16.6-13.8-18-21.8-0.6-3.6-0.8-102.8-0.6-220.8 0.6-212.8 0.6-214.4 4.8-219.8 7.8-10.6 14.2-13.8 26.8-13.8s19 3.2 26.8 13.8c4.2 5.4 4.2 6.4 4.2 225.2s0 219.8-4.2 225.2c-2.2 3-6.4 7.4-9.2 9.4-6.6 5-22.6 6.4-30.6 2.6zM659 541.2c-8.2-3.6-16.6-13.8-18-21.8-0.6-3.6-0.8-102.8-0.6-220.8 0.6-212.8 0.6-214.4 4.8-219.8 7.8-10.6 14.2-13.8 26.8-13.8s19 3.2 26.8 13.8c4.2 5.4 4.2 6.4 4.2 225.2s0 219.8-4.2 225.2c-2.2 3-6.4 7.4-9.2 9.4-6.6 5-22.6 6.4-30.6 2.6z" />
<glyph unicode="&#xe90d;" glyph-name="undo" d="M246 872.8c-17-6-18.4-7.6-126.6-131.4-59.6-68-110.6-126.8-113.4-130.8-6.6-9.6-7.8-28.6-2.6-38.6 2-3.8 53.2-63.6 113.8-133 81.6-93.2 112.2-127 117.6-129.6 13.4-6.2 23.4-6.6 35.8-0.8 13 6 20.4 15 23.6 29 2.8 12 0.4 23.4-7.2 33.4-2.4 3.4-37.4 43.8-77.8 90-40.2 46-73.2 84.6-73.2 85.4 0 2.4 572.6 2 599.8-0.4 57-5 102-26 140.6-65.4 7.4-7.4 17.2-18.6 21.8-24.6 12.2-16.4 29-52.4 35.2-75 4.8-18 5.4-23.4 5.4-54 0-30.2-0.6-36.2-5.2-53.2-7.4-27-16-46.6-30-68-35.4-53.6-93.8-89.8-157.6-97.8-11-1.2-127.6-2-337-2-307.2 0-320.4-0.2-328-3.8-20.6-9.6-30.4-33.4-22-53.8 4-9.4 10-15.6 20-21l8-4.4 314-0.6c317.4-0.6 348.8 0 381 6.8 169 35.2 275.4 206.6 231.8 373.8-22.6 86-80 156.2-161.2 196.8-21.6 10.8-43.6 18.2-79.6 26.6-7.4 1.8-93.6 2.6-324.4 3.4l-314.4 1.2 77 88c42.2 48.4 78.4 91.2 80.2 95 8.8 17.6 1.6 41.8-15.4 52.4-8.8 5.4-23.8 8.6-30 6.4z" />
<glyph unicode="&#xe90e;" glyph-name="ellipse" d="M489.3 806.904c-167.976-4.792-325.36-70.368-415.653-173.525-30.014-34.301-53.722-78.439-65.324-121.568-5.801-21.691-6.558-29.509-6.558-63.811s0.757-42.12 6.558-63.811c11.602-43.129 35.31-87.267 65.324-121.568 80.457-91.807 212.619-153.6 363.949-170.246 32.284-3.531 121.568-3.531 152.339 0 117.533 13.367 214.889 49.434 297.868 110.471 25.222 18.412 68.855 63.054 83.988 85.501 43.129 64.82 60.028 134.432 48.426 200.765-10.845 62.802-38.085 113.75-87.015 163.436-74.656 75.413-178.569 125.1-305.434 145.781-37.076 6.305-95.59 9.836-138.467 8.575zM570.262 745.616c133.675-13.115 240.363-57.253 315.775-130.648 50.443-49.182 77.431-107.444 77.431-166.967 0-169.994-217.411-308.461-470.384-299.381-94.077 3.531-176.552 23.204-248.686 59.775-49.939 25.222-77.178 44.642-110.723 78.187-48.426 48.93-73.143 103.409-73.143 161.419s24.717 112.489 73.143 161.419c33.545 33.545 60.784 52.966 110.723 78.187 62.802 31.779 139.476 52.209 220.942 58.767 23.961 2.018 80.962 1.513 104.922-0.757z" />
<glyph unicode="&#xe90f;" glyph-name="rectangle_1" d="M20.813 814.586c-4.44-1.943-10.823-6.383-13.875-9.99-5.55-6.105-5.55-9.99-5.55-356.596s0-350.491 5.55-356.596c12.765-14.43-12.21-13.875 505.062-13.875s492.297-0.555 505.062 13.875c5.55 6.105 5.55 9.99 5.55 356.596s0 350.491-5.55 356.596c-13.043 14.43 12.488 13.875-505.617 13.875-394.060-0.278-483.694-0.833-490.632-3.885zM957.398 448v-303.87h-890.797v607.74h890.797v-303.87z" />
<glyph unicode="&#xe910;" glyph-name="stop" d="M87.137 954.727c-41.071-11.655-72.152-43.846-82.697-85.195-3.885-15.263-4.44-62.717-4.44-421.533s0.555-406.27 4.44-421.533c10.823-41.904 41.904-73.817 83.807-85.472 17.483-4.718 38.573-4.995 423.753-4.995s406.27 0.278 423.753 4.995c41.904 11.655 72.984 43.569 83.807 85.472 3.885 15.263 4.44 62.717 4.44 421.533s-0.555 406.27-4.44 421.533c-10.823 41.904-41.904 73.817-83.807 85.472-17.483 4.718-38.296 4.995-425.14 4.718-379.352 0-407.657-0.555-423.475-4.995zM923.543 873.973c4.995-3.053 11.378-9.435 14.43-14.43 5.55-9.158 5.55-14.985 5.55-411.543s0-402.385-5.55-411.543c-3.053-4.995-9.435-11.378-14.43-14.43-9.158-5.55-14.985-5.55-411.543-5.55s-402.385 0-411.543 5.55c-4.995 3.053-11.378 9.435-14.43 14.43-5.55 9.158-5.55 14.985-5.55 411.543s0 402.385 5.55 411.543c3.053 4.995 9.435 11.378 14.43 14.43 9.158 5.55 14.985 5.55 411.543 5.55s402.385 0 411.543-5.55z" />
<glyph unicode="&#xe911;" glyph-name="square_1" d="M20.813 957.502c-3.053-1.388-8.603-5.828-12.488-9.99l-6.938-7.493v-984.594l9.158-8.88 8.88-9.158h985.149l8.88 9.158 9.158 8.88v985.149l-9.158 8.88-8.88 9.158-489.244 0.555c-268.904 0.278-491.464-0.555-494.517-1.665zM957.398 448v-445.398h-890.797v890.797h890.797v-445.398z" />
<glyph unicode="&#xe912;" glyph-name="using-chlorine" d="M484.804 901.724c-30.526-7.77-51.339-27.196-77.424-72.152-9.99-17.483-43.291-74.927-73.539-127.653-30.526-52.726-82.142-141.806-114.61-198.417-72.152-125.433-93.797-162.619-155.126-268.627-62.162-107.395-62.439-108.228-62.439-137.921 0-18.038 1.388-27.473 6.383-39.683 8.88-22.478 31.358-46.066 53.559-56.334l17.483-8.048h865.821l17.483 8.048c22.201 10.268 44.679 33.856 53.559 56.334 4.995 12.21 6.383 21.646 6.383 39.683 0 29.693-0.278 30.526-62.439 137.921-61.329 106.008-82.975 143.193-155.126 268.627-32.468 56.611-84.085 145.691-114.61 198.417-30.248 52.726-63.549 110.17-73.539 127.653-31.081 54.114-55.224 71.874-98.515 73.817-12.488 0.555-27.473-0.278-33.301-1.665zM529.76 819.304c4.44-4.44 34.133-52.726 65.769-107.673s69.099-119.883 82.975-144.304c14.153-24.421 34.688-59.941 45.789-79.089 10.823-19.148 39.406-68.267 62.994-109.615 23.866-41.071 56.889-98.515 73.817-127.653 95.462-164.839 92.41-158.179 77.424-173.442l-8.325-8.325h-836.405l-8.325 8.325c-14.985 15.263-18.038 8.603 77.424 173.442 16.928 29.138 49.951 86.582 73.817 127.653 23.588 41.349 52.171 90.467 62.994 109.615 11.1 19.148 31.636 54.669 45.789 79.089 13.875 24.421 51.339 89.357 82.975 144.304s61.329 103.233 65.769 107.673c5.55 5.273 11.1 7.493 17.76 7.493s12.21-2.22 17.76-7.493z" />
<glyph unicode="&#xe913;" glyph-name="fill" d="M692.335 956.217c-4.035-1.766-117.029-112.489-250.956-246.164-219.681-218.924-244.65-243.137-257.261-248.433-33.040-13.62-55.488-31.023-74.152-57.505-13.367-18.664-19.925-33.545-25.474-56.749-11.098-45.399 2.522-74.152 35.31-74.152 24.465 0 35.563 12.106 40.859 45.147 2.018 13.872 5.801 26.231 9.584 32.788 6.305 10.845 27.492 31.275 32.536 31.275 1.513 0 82.727-79.7 180.587-177.308 169.237-168.733 178.822-177.813 196.729-186.893 48.93-24.213 97.608-24.717 146.033-1.513 19.168 9.332 25.474 14.376 64.315 52.461 115.515 112.993 198.242 197.233 206.313 209.844 35.563 55.235 35.31 123.838-0.504 177.308-9.332 14.124-53.974 59.775-179.578 184.37l-167.22 165.706 45.147 44.642c24.717 24.717 46.66 48.173 48.678 51.957 5.044 9.584 3.279 31.275-3.279 40.102-6.053 8.323-22.7 16.899-32.788 16.899-4.035-0.252-10.593-1.766-14.881-3.783zM764.469 579.909c159.401-159.653 168.481-169.237 173.525-183.109 6.81-18.916 6.81-40.102 0-59.019-5.044-13.62-12.611-21.691-119.299-128.631-130.144-130.144-127.369-127.874-163.184-128.126-36.067 0-30.014-5.297-197.738 162.428-81.214 80.962-147.547 147.547-147.547 148.051s102.652 1.261 228.004 1.513c225.986 0.757 228.256 0.757 235.066 6.053 17.907 13.115 22.952 31.275 13.872 49.434-3.027 6.053-8.575 13.115-12.359 15.89-6.558 5.044-11.35 5.044-231.787 5.801-123.838 0.252-225.23 1.513-225.23 2.522 0 2.774 273.403 275.421 276.177 275.421 1.513 0 78.187-75.665 170.499-168.229zM98.365 225.545c-22.7-15.385-73.9-92.311-91.555-137.458-8.071-21.438-7.567-53.974 1.513-75.917 9.080-21.691 22.7-39.598 40.102-52.461 95.338-70.116 222.707 29.257 177.056 138.215-14.124 33.797-67.594 113.75-84.745 126.361-4.035 3.027-12.106 5.549-20.177 6.305-11.098 0.757-14.881 0-22.195-5.044zM133.423 101.454c24.717-40.355 27.492-52.713 15.385-69.612-15.385-21.691-48.93-19.925-63.054 3.027-7.314 12.106-6.305 22.447 4.035 43.129 11.35 22.447 25.474 44.642 28.5 44.642 1.009 0 7.819-9.584 15.133-21.186z" />
<glyph unicode="&#xe914;" glyph-name="up-arrow_2" d="M457.886 956.947c-92.41-10.545-180.657-45.234-253.919-100.735-28.583-21.368-78.812-71.597-100.18-100.18-56.611-74.927-90.467-161.231-100.735-257.249-11.655-106.84 14.43-222.283 72.152-317.19 38.573-63.827 106.563-131.816 170.389-170.389 94.907-57.721 210.35-83.807 317.19-72.152 96.017 10.268 182.322 44.124 257.249 100.735 28.583 21.368 78.812 71.597 100.18 100.18 56.611 74.927 90.467 161.231 100.735 257.249 13.598 124.323-23.311 256.139-100.735 358.816-21.368 28.583-71.597 78.812-100.18 100.18-102.955 77.702-236.713 114.888-362.146 100.735zM553.626 878.136c69.932-4.718 152.629-36.076 212.57-80.754 122.38-91.022 186.762-229.498 177.049-379.907-6.938-102.4-51.894-200.915-125.711-275.009-73.817-73.817-172.609-119.050-275.009-125.711-150.409-9.713-288.885 54.669-379.907 177.049-46.899 63.272-76.592 144.026-81.864 223.67-9.713 150.409 54.669 288.885 177.049 379.907 47.176 34.966 106.285 61.329 166.782 74.094 27.196 5.828 76.314 10.545 95.74 9.158 6.105-0.555 21.091-1.665 33.301-2.498zM492.575 596.744c-4.44-2.775-54.114-51.339-110.17-107.395-68.544-68.822-102.4-104.898-103.788-110.17-5.273-21.923 6.66-43.846 26.918-49.119 21.923-6.105 22.201-5.828 117.663 89.080l88.802 88.525 86.027-86.305c47.454-47.454 89.357-87.97 93.52-90.19 9.713-4.995 28.028-4.995 38.573 0.278 16.095 8.603 24.143 33.301 16.095 49.396-4.44 8.603-207.575 212.293-216.733 217.288-10.545 5.55-26.918 4.995-36.908-1.388z" />
<glyph unicode="&#xe915;" glyph-name="up-arrow" d="M489.3 744.102c-5.801-2.522-91.555-86.51-243.894-238.849-258.018-257.513-247.425-245.911-244.65-273.151 0.757-7.819 4.035-17.151 7.567-22.7 7.062-11.098 44.642-48.426 55.488-54.983 9.584-5.801 28.5-7.819 42.12-4.035 10.341 2.774 27.996 19.421 208.835 200.008l197.233 197.233 196.225-195.972c137.458-137.458 198.747-197.233 205.304-200.008 12.611-5.044 31.275-4.792 43.633 1.009 11.35 5.044 54.731 47.165 60.784 58.767 2.018 4.035 4.54 12.863 5.297 19.673 3.279 27.492 15.385 13.872-241.119 270.881-187.901 188.406-236.075 235.318-246.164 240.11-14.629 7.062-33.293 7.819-46.66 2.018z" />
<glyph unicode="&#xe916;" glyph-name="nail" d="M669.383 904.008c-16.646-49.687-17.655-54.227-14.629-61.289 3.027-7.314 18.664-80.962 18.664-87.771 0-1.513-3.279-6.305-7.062-10.593-7.314-8.071-93.572-101.896-217.411-237.084-40.607-44.39-79.7-87.015-86.763-94.581-23.708-25.726-137.206-149.312-236.075-257.261-32.284-35.31-63.811-69.612-69.612-75.917-5.801-6.558-11.854-15.637-13.115-20.177-1.513-4.792-11.098-33.797-21.691-64.567s-19.168-56.749-19.168-57.505c0-0.757 1.261-0.757 3.027 0.252 1.513 1.009 28.753 12.863 60.532 26.231l57.253 24.213 51.2 46.66c27.996 25.474 70.873 64.567 95.338 86.51 39.346 35.815 59.019 53.722 108.201 98.869 44.642 40.607 189.163 172.012 225.986 205.304 23.708 21.438 80.709 73.395 126.613 115.011l83.232 75.917 23.708-4.288c34.806-6.81 58.010-12.359 65.324-16.142 5.801-2.774 11.854-1.766 53.218 10.341 25.474 7.314 50.948 14.629 56.244 16.142l9.836 2.774-166.211 166.211c-91.302 91.302-166.715 166.211-167.472 166.211s-9.332-23.961-19.168-53.47z" />
<glyph unicode="&#xe917;" glyph-name="square-measument_1" d="M102.6 911.4c-36-35.8-46.6-47.6-46.6-51.6 0-3.8 10.8-15.6 47.6-52.4 26.2-26 49-47.4 50.6-47.4 1.8 0 4.6 1.6 6.4 3.6 2.8 3.2 3.4 8.6 3.4 33v29.4h594v-27.4c0-30 1.8-37.2 9.8-38.2 3.8-0.6 13.6 8.2 52.4 46.8 31.2 31 47.8 49.2 47.8 51.8 0 5.8-93.6 99-99.4 99-8.6 0-10.6-6.6-10.6-36.4v-27.6h-594v29.6c0 31.6-0.8 34.4-9.8 34.4-4 0-15.4-10.4-51.6-46.6zM874.6 759.6c-25.8-25.6-47.2-48.6-48-51.2-0.6-2.8 0.2-6 2.4-8.4 3.2-3.6 6.4-4 32.4-4h28.6v-594h-28.8c-31 0-35.2-1.2-35.2-10.6 0-5.6 93.4-99.4 99-99.4 5 0 96.8 91.2 98.4 97.8 0.8 3.6 0 5.8-3.4 8.6-3.8 3.2-8.4 3.6-33.2 3.6h-28.8v594h28.8c24.8 0 29.4 0.4 33.2 3.6 3.4 2.8 4.2 5 3.4 8.6-1.6 6.6-93.4 97.8-98.4 97.8-2.2 0-22.4-18.4-50.4-46.4zM35 715.4c-16.2-6.4-26.4-16.8-32.2-32.8-2.2-6.2-2.6-67.8-2.8-354.8 0-381.4-0.8-355.6 12-371.8 3.4-4.2 10.8-10 16.4-12.8l10.4-5.2h702.2l10 4.8c12 5.6 19.4 13.2 24.8 25.2 4 9 4.2 11.2 4.2 360s-0.2 351-4.2 360c-5 11-12.4 19-22.8 24.6l-8 4.4-352 0.4c-266.4 0.2-353.4-0.2-358-2zM678 328v-288h-576v576h576v-288z" />
<glyph unicode="&#xe918;" glyph-name="magnifying-glass_1" d="M388 958.8c-41.6-5-70.8-11.4-100-22.2-94.2-35-170-103.4-214.2-193.6-86.8-177.4-23.2-392.8 146.6-496.4 99.6-60.8 225.4-72.6 333.8-31.6 19.8 7.6 53 24 68.6 34l10.8 6.8 150.6-156.8c112.8-117.4 152.8-157.6 158.4-160 17.2-7 34.2-0.6 42.8 15.8 4 7.6 4 23 0 30.4-1.8 3.2-69.8 75-151.2 159.6l-148.2 153.8 15 15.6c27.8 29 52.8 67 69.8 105.2 84.8 191.2 1.8 413.8-187.8 503.8-33.2 15.6-63.2 25-102 31.8-17.2 3-78.4 5.6-93 3.8zM482.6 886.2c125.8-27.2 220.6-121.8 247.6-247.6 6.6-30.6 7.6-82.2 2-114.4-36.4-213.2-266.8-329-458-230.2-122.4 63.4-190.2 199.2-167 334.4 22 129.2 122.2 232.2 250.2 257.6 28 5.6 29.8 5.6 69.6 5 27-0.6 40.8-1.8 55.6-4.8zM409.4 779.2c-4.4-1.6-10-5-12.8-7.6-10.2-9.4-10.6-12-10.6-89.6v-72h-68.4c-37.8 0-72.2-1-76.4-2-9.6-2.2-16.6-7.2-22.8-16.2-4-5.6-4.6-8.8-4-18.4 1-12.2 4.6-19 14.4-26.2 5.2-4 8.4-4.2 81.2-4.8l75.8-0.6 1.2-151.2 5.8-7.4c14.2-18.6 43.4-17.2 55.8 2.8 4.2 6.8 4.4 8.8 5 81.6l0.6 74.4h73.2c71.6 0 73.2 0 81 4.4 15.6 8.8 21.4 27.8 13.2 43.4-5.4 10.6-12 15.8-22.8 18.2-4.2 1-38.6 2-76.2 2h-68.6v70.6c-0.2 73.8-0.8 80.4-9.4 89.8-8.4 9.4-23.4 13-35.2 8.8z" />
<glyph unicode="&#xe919;" glyph-name="magnifying-glass-_1" d="M388 958.8c-41.6-5-70.8-11.4-100-22.2-94.2-35-170-103.4-214.2-193.6-86.8-177.4-23.2-392.8 146.6-496.4 99.6-60.8 225.4-72.6 333.8-31.6 19.8 7.6 53 24 68.6 34l10.8 6.8 150.6-156.8c112.8-117.4 152.8-157.6 158.4-160 17.2-7 34.2-0.6 42.8 15.8 4 7.6 4 23 0 30.4-1.8 3.2-69.8 75-151.2 159.6l-148.2 153.8 15 15.6c27.8 29 52.8 67 69.8 105.2 84.8 191.2 1.8 413.8-187.8 503.8-33.2 15.6-63.2 25-102 31.8-17.2 3-78.4 5.6-93 3.8zM482.6 886.2c109.8-23.8 199-101.2 236-205.2 16.6-46.6 22-108 13.6-156.8-36.4-213.2-266.8-329-458-230.2-122.4 63.4-190.2 199.2-167 334.4 22 129.2 122.2 232.2 250.2 257.6 28 5.6 29.8 5.6 69.6 5 27-0.6 40.8-1.8 55.6-4.8zM240.2 608c-8.6-2-16-7.4-21.8-16.2-4-5.6-4.6-8.8-4-18.4 1-12.2 4.6-19 14.4-26.2 5.4-4.2 7.2-4.2 188.6-4.8l183-0.4 7.8 4.4c15.8 8.8 21.6 27.8 13.4 43.4-5.4 10.6-12 15.8-22.8 18.2-9.6 2.4-349 2.2-358.6 0z" />
<glyph unicode="&#xe91a;" glyph-name="right-align" d="M324.2 774c-13.6-3.2-24.2-16-24.2-29 0-8.6 6-19.2 13.8-24.4l6.8-4.6h562.8l6.8 4.6c18.8 12.6 17.6 38.6-2.4 50.4-6.8 4-10.6 4-281.8 4.4-151.2 0-278-0.4-281.8-1.4zM324.2 654c-13.6-3.2-24.2-16-24.2-29 0-8.6 6-19.2 13.8-24.4l6.8-4.6h562.8l6.8 4.6c18.8 12.6 17.6 38.6-2.4 50.4-6.8 4-10.6 4-281.8 4.4-151.2 0-278-0.4-281.8-1.4zM133.8 529.4c-18.8-12.6-17.6-38.6 2.4-50.4 6.8-4 10.4-4 375.8-4s369 0 375.8 4c20 11.8 21.2 37.8 2.4 50.4l-6.8 4.6h-742.8l-6.8-4.6zM133.8 409.4c-18.8-12.6-17.6-38.6 2.4-50.4 6.8-4 10.4-4 375.8-4s369 0 375.8 4c20 11.8 21.2 37.8 2.4 50.4l-6.8 4.6h-742.8l-6.8-4.6zM313.8 295.4c-18.8-12.6-17.6-38.6 2.4-50.4 6.8-4 10.4-4 285.8-4s279 0 285.8 4c20 11.8 21.2 37.8 2.4 50.4l-6.8 4.6h-562.8l-6.8-4.6zM313.8 175.4c-18.8-12.6-17.6-38.6 2.4-50.4 6.8-4 10.4-4 285.8-4s279 0 285.8 4c20 11.8 21.2 37.8 2.4 50.4l-6.8 4.6h-562.8l-6.8-4.6z" />
<glyph unicode="&#xe91b;" glyph-name="preview-removebg-preview" d="M458.752 702.566c-39.322-5.939-78.848-18.432-112.64-35.43-6.758-3.482-13.107-6.144-14.336-6.144-4.301 0-31.334-18.842-49.357-33.997-16.998-14.336-50.79-48.538-60.416-61.235-8.806-11.674-39.526-74.342-44.851-91.75-6.349-21.299-6.349-30.72 0-52.019 5.325-17.408 36.045-80.077 45.056-91.955 9.626-12.698 46.285-49.766 60.826-61.44 8.192-6.758 15.36-12.698 15.974-13.312 6.349-6.963 49.357-28.877 86.016-43.418 72.499-28.672 180.838-28.877 253.747 0 35.43 13.926 79.872 36.454 86.221 43.418 0.614 0.614 7.782 6.554 15.974 13.312 14.541 11.674 51.2 48.742 60.826 61.44 9.011 11.878 39.731 74.547 45.056 91.955 6.349 21.299 6.349 30.72 0 52.019-5.325 17.408-36.045 80.077-44.851 91.75-9.626 12.698-43.418 46.899-60.416 61.235-18.022 15.155-45.056 33.997-49.357 33.997-1.229 0-7.578 2.662-14.336 6.144-35.021 17.613-74.957 30.106-114.893 35.84-26.829 3.686-78.438 3.686-104.243-0.41zM540.262 505.549c11.059-5.734 23.552-18.022 29.491-29.286 3.891-7.373 4.71-11.878 4.71-28.262 0-22.323-3.482-31.13-17.408-45.056s-22.733-17.408-45.056-17.408c-22.323 0-31.13 3.482-45.056 17.408s-17.408 22.733-17.408 45.056c0 16.384 0.819 20.89 4.71 28.262 8.192 15.155 23.347 28.262 39.322 33.382 9.83 3.277 37.274 0.819 46.694-4.096z" />
<glyph unicode="&#xe91c;" glyph-name="left-align" d="M154.2 774c-13.6-3.2-24.2-16-24.2-29 0-8.6 6-19.2 13.8-24.4l6.8-4.6h542.8l6.8 4.6c18.8 12.6 17.6 38.6-2.4 50.4-6.8 4-10.6 4-271.8 4.4-145.8 0-268-0.4-271.8-1.4zM154.2 654c-13.6-3.2-24.2-16-24.2-29 0-8.6 6-19.2 13.8-24.4l6.8-4.6h542.8l6.8 4.6c18.8 12.6 17.6 38.6-2.4 50.4-6.8 4-10.6 4-271.8 4.4-145.8 0-268-0.4-271.8-1.4zM143.8 529.4c-18.8-12.6-17.6-38.6 2.4-50.4 6.8-4 10.4-4 365.8-4s359 0 365.8 4c20 11.8 21.2 37.8 2.4 50.4l-6.8 4.6h-722.8l-6.8-4.6zM143.8 409.4c-18.8-12.6-17.6-38.6 2.4-50.4 6.8-4 10.4-4 365.8-4s359 0 365.8 4c20 11.8 21.2 37.8 2.4 50.4l-6.8 4.6h-722.8l-6.8-4.6zM143.8 295.4c-18.8-12.6-17.6-38.6 2.4-50.4 6.8-4 10.4-4 275.8-4s269 0 275.8 4c20 11.8 21.2 37.8 2.4 50.4l-6.8 4.6h-542.8l-6.8-4.6zM143.8 175.4c-18.8-12.6-17.6-38.6 2.4-50.4 6.8-4 10.4-4 275.8-4s269 0 275.8 4c20 11.8 21.2 37.8 2.4 50.4l-6.8 4.6h-542.8l-6.8-4.6z" />
<glyph unicode="&#xe91d;" glyph-name="flip-removebg-preview" d="M380.723 957.133c-18.227-6.554-29.901-17.613-35.635-33.792-7.782-22.323-2.458-37.069 22.528-63.283 47.309-49.766 278.118-278.118 283.034-280.371 9.626-4.096 34.816-3.277 44.851 1.638 4.71 2.253 20.48 15.565 35.021 29.696 14.336 14.131 34.816 33.178 45.466 42.394s29.082 26.419 41.165 38.298c12.288 11.878 31.13 29.286 42.189 38.912s25.6 22.938 32.358 29.901c6.963 6.758 26.829 25.6 44.237 41.574 80.282 73.523 84.378 78.234 87.040 99.738 2.867 21.504-12.902 45.67-35.021 54.067-11.059 4.096-13.926 4.096-305.562 4.096-235.315-0.205-295.731-0.614-301.67-2.867zM161.997 816.23c-16.384-7.987-73.728-69.222-94.618-100.557-29.491-44.851-54.067-109.773-62.259-165.274-4.096-26.214-3.891-90.931 0-117.76 8.806-57.958 34.611-124.109 66.97-171.418l14.95-21.914-40.346-41.574c-22.323-22.938-41.984-44.646-43.827-48.333-4.71-10.24-2.048-21.709 7.373-31.949l7.987-8.397 129.024-0.614c141.722-0.614 136.397-1.024 145.408 11.674 4.301 5.939 4.301 7.578 4.301 136.397s0 130.458-4.301 136.397c-2.253 3.277-6.758 7.373-10.035 9.011-7.578 3.891-23.142 3.891-30.515 0-3.277-1.638-19.046-16.794-35.226-33.792-15.974-16.998-38.093-39.117-49.152-49.152l-19.866-18.227-8.397 11.059c-16.179 21.914-40.96 81.92-48.333 117.76-7.782 37.069-7.373 88.883 0.819 125.952 10.035 46.080 30.925 92.774 56.525 126.976 14.95 20.070 57.754 64.512 62.054 64.512 3.482 0 11.059 16.998 12.083 27.238 1.229 11.469-3.686 26.419-11.264 35.021-10.035 11.264-33.792 14.746-49.357 6.963zM404.275 485.069c-3.686-2.253-9.216-7.373-12.288-11.674-5.53-7.168-5.939-9.011-5.939-25.395s0.41-18.227 5.939-25.395c3.072-4.301 8.602-9.421 12.288-11.674 6.144-3.686 14.131-3.891 277.709-3.891 260.301 0 271.77 0.205 278.528 3.891 3.891 2.048 10.035 7.578 13.312 12.288 5.53 7.987 6.144 10.24 6.144 24.781s-0.614 16.794-6.144 24.781c-3.277 4.71-9.421 10.24-13.312 12.288-6.758 3.686-18.227 3.891-278.528 3.891-263.578 0-271.565-0.205-277.709-3.891zM649.626 315.085c-9.421-4.915-294.502-289.997-300.851-300.646-10.035-17.408-7.782-41.984 5.325-58.163 3.277-3.891 10.854-9.83 16.794-13.107l11.059-6.144 297.37-0.614c295.731-0.41 297.37-0.41 308.634 3.686 22.323 8.397 37.888 32.563 35.021 54.067-2.662 21.504-6.758 26.214-87.040 99.738-17.408 15.974-37.274 34.816-44.237 41.574-6.758 6.963-21.299 20.275-32.358 29.901s-29.901 27.034-42.189 38.912c-12.083 11.878-30.515 29.082-41.165 38.298s-31.13 28.467-45.875 42.803c-14.746 14.336-30.31 27.648-34.816 29.696-11.059 5.12-36.25 5.12-45.67 0z" />
<glyph unicode="&#xe91e;" glyph-name="check-mark" d="M464.6 958c-119.6-11.6-229.2-63.2-314.2-148-79.4-79.4-128-176.4-145.8-292-4.8-32.2-4.8-107.8 0-140 17.8-115.4 66-211.8 145.4-291.6 79.4-79.4 176.4-128 292-145.8 32.2-4.8 107.8-4.8 140 0 115.4 17.8 211.8 66 291.6 145.4 79.4 79.4 128 176.4 145.8 292 4.8 32.2 4.8 107.8 0 140-17.8 115.4-66 211.8-145.4 291.6-78.8 79-177 128.2-290 145.4-25 3.8-93.6 5.4-119.4 3zM577 875c92.4-14.4 173.8-55.8 240-122 66.8-66.8 107.6-147.6 122.4-242 2.4-15.6 3.4-34 3.4-63s-1-47.4-3.4-63c-14.8-94.4-55.6-175.2-122.4-242s-147.6-107.6-242-122.4c-30.2-4.8-95.8-4.8-126 0-94.4 14.8-175.2 55.6-242 122.4s-107.6 147.6-122.4 242c-4.8 30.2-4.8 95.8 0 126 14.8 94.4 55.6 175.2 122.4 242 73.6 73.6 161 114.4 270 125.8 16.2 1.6 80.6-0.8 100-3.8zM694 618.8c-4.4-1.8-51.4-47.4-129.4-125.4l-122.6-122.2-51.4 51.2c-28.4 28-54.4 52.4-57.6 54.2-20.6 10.4-43.8 3-54-17.4-6-12-6.4-23-1-34 2.4-5.4 28.4-32.6 73.4-77.4 54.8-54.6 71.2-69.8 77.4-71.8 10.2-3.2 25.6-1.4 33.8 4.2 9.6 6.6 272.6 269.4 280 279.8 5.6 8 6.4 10.6 6.4 22.4 0 11.6-0.8 14.4-6 21.8-11.2 15.8-31.8 22-49 14.6z" />
<glyph unicode="&#xe91f;" glyph-name="adjust" d="M62.8 836.2c-31-10.6-53.4-35.2-59.8-65.6-4.4-20.4-4.4-624.8 0-645.2 6.4-30.8 29-55.4 60.6-65.8 10.6-3.4 31.2-3.6 448.4-3.6s437.8 0.2 448.4 3.6c31.6 10.4 54.2 35 60.6 65.8 4.4 20.4 4.4 624.8 0 645.2-6.4 30.8-29 55.4-60.6 65.8-10.6 3.4-31 3.6-449.2 3.4-410.2 0-438.8-0.4-448.4-3.6zM950.2 775.4c3.8-2.4 8.4-7.6 10.2-11.4 3.4-6.6 3.6-25.8 3.6-316s-0.2-309.4-3.6-316c-1.8-3.8-6.4-9-10.2-11.4l-6.8-4.6h-862.8l-6.8 4.6c-3.8 2.4-8.4 7.6-10.2 11.4-3.4 6.6-3.6 25.8-3.6 316s0.2 309.4 3.6 316c1.8 3.8 6.4 9 10.2 11.4l6.8 4.6h862.8l6.8-4.6zM159 721.2c-10-4.2-16.6-13.8-18-25.6-0.8-5.8-1-27.6-0.6-48.6 0.6-33.8 1-38.8 4.6-45 8.4-14.2 27.4-19 41.6-10.4 11.4 7.2 13.4 14 13.4 45.2v27.2h30.6c26.8 0 31.2 0.4 37 4 20 12.2 19 42.2-1.6 52.4-6 3.2-13.2 3.6-54 3.6-34.6-0.2-48.6-0.8-53-2.8zM758 720.6c-20.6-10.6-21.6-40.4-1.6-52.6 5.8-3.6 10.2-4 37.2-4h30.4v-27.2c0-31.2 2-38 13.4-45.2 14.2-8.6 33.2-3.8 41.6 10.4 3.8 6.6 4 10.4 4 54.4 0 44.6-0.2 47.6-4.2 52.8-10.2 13.8-10.2 13.8-64.4 14.4-44 0.4-50.2 0.2-56.4-3zM161 307c-18.8-6.6-21.6-16.2-20.6-72.2 0.6-46.6 1-47.6 14.4-57.6 5.2-4 8.6-4.2 54.8-4.8 44-0.4 50.2-0.2 56.4 3 20.6 10.6 21.6 40.4 1.6 52.6-5.8 3.6-10.2 4-37 4h-30.6v27.2c0 30.8-2.2 38.2-12.8 44.6-9 5.4-17 6.4-26.2 3.2zM845.8 308.2c-18.2-5.6-21.8-13.8-21.8-49v-27.2h-30.4c-27 0-31.4-0.4-37.2-4-20-12.2-19-42 1.6-52.6 6.2-3.2 12.4-3.4 56.4-3 54.2 0.6 54.2 0.6 64.4 14.4 4 5.2 4.2 8.2 4.2 52.8 0 44-0.2 47.8-4 54.4-6.6 11.2-21.8 17.6-33.2 14.2z" />
<glyph unicode="&#xe920;" glyph-name="add" d="M466 958c-98.8-9.6-190-46-270-107.6-39-30-89.6-86.4-118.8-132.4-12.6-19.8-37.2-70.2-46-94.2-9.8-26.8-20.4-68-25.6-99.8-6.2-39-6.2-113 0-152 9-55.2 23.2-99.6 47.4-149 26.4-53.8 53.8-92 97.8-136.2 44.2-44 82.4-71.4 136.2-97.8 49.4-24.2 93.8-38.4 149-47.4 39-6.2 113-6.2 152 0 55.2 9 99.6 23.2 149 47.4 53.8 26.4 92 53.8 136.2 97.8 44 44.2 71.4 82.4 97.8 136.2 17.6 35.8 26.4 59.2 36 95.2 12.6 48 15.6 74.2 15.6 129.8s-3 81.8-15.6 129.8c-9.6 36-18.4 59.4-36 95.2-26.4 53.8-53.8 92-97.8 136.2-44.2 44-82.4 71.4-136.2 97.8-49.2 24.2-94.8 38.6-148 47-29.4 4.6-95 6.8-123 4zM559.6 877.8c97.6-10.6 186.8-54 257.6-124.6 83-83 126.8-188.6 126.8-305.2s-43.8-222.2-126.8-305.2c-83-83-188.6-126.8-305.2-126.8s-222.2 43.8-305.2 126.8c-83 83-126.8 188.6-126.8 305.2s43.8 222.2 126.8 305.2c69.8 69.8 160 113.8 255.2 124.6 22 2.4 75.2 2.6 97.6 0zM503 688.2c-13.4-3.4-25.4-14.8-28.8-27.6-1.4-4.8-2.2-38-2.2-88v-80.6h-78c-50.2 0-81.6-0.8-88.4-2.2-13-2.8-25.8-14.6-29.6-27.2-5.4-17.8 3.6-38.2 20.4-46.4 8.6-4 11.2-4.2 92.2-4.2h83.2l0.6-84.4c0.6-81.4 0.8-85 4.8-92.6 2.2-4.4 8-10.6 12.6-14 7.4-5.2 10.2-6 22.2-6s14.8 0.8 22.2 6c4.6 3.4 10.4 9.6 12.6 14 4 7.6 4.2 11.2 4.8 92.6l0.6 84.4h83.2c81 0 83.6 0.2 92.2 4.2 16.8 8.2 25.8 28.6 20.4 46.4-3.8 12.6-16.6 24.4-29.6 27.2-6.8 1.4-38.2 2.2-88.4 2.2h-78v80.6c0 50-0.8 83.2-2.2 88-2.2 8.6-11.8 20.2-19.6 24.2-7 3.6-19.8 5.2-27.2 3.4z" />
<glyph unicode="&#xe921;" glyph-name="add_1" d="M475 958.6c-21-1.4-65-9-90-15.4-68.4-17.8-137.8-52.8-195-98.4-21-16.8-58.8-54.4-76-75.6-59-73-97.2-161.8-110.2-257.2-3.4-24.8-3.4-99.2 0-124 13.4-97.6 51.4-186 113-262 15.4-19.2 54-57.8 73.2-73.2 76-61.6 164.4-99.6 262-113 24.8-3.4 99.2-3.4 124 0 95.4 13 184.2 51.2 257.2 110.2 21.2 17.2 58.8 55 75.6 76 33.6 42.2 66.4 100 84.4 149 17.4 47.6 28 103.2 30 157 5.4 141.6-48.2 277.2-149.2 378-105.6 105.8-247.8 158.6-399 148.6zM538.4 774.4c11.6-5 24.8-18.2 30.4-30.2 4.2-9 4.2-11.4 4.8-121.6l0.6-112.4 112.4-0.6c110.2-0.6 112.6-0.6 121.6-4.8 12-5.6 25-18.6 30.4-30.6 6-12.8 6-35.6 0-48.4-5.4-12-18.4-25-30.4-30.6-9-4.2-11.4-4.2-121.6-4.8l-112.4-0.6-0.6-114.4c-0.6-112.2-0.6-114.6-4.8-123.6-5.6-12-18.6-25-30.6-30.4-12.8-6-35.6-6-48.4 0-12 5.4-25 18.4-30.6 30.4-4.2 9-4.2 11.4-4.8 123.6l-0.6 114.4-114.4 0.6c-112.2 0.6-114.6 0.6-123.6 4.8-12 5.6-25 18.6-30.4 30.6-6 12.8-6 35.6 0 48.4 5.4 12 18.4 25 30.4 30.6 9 4.2 11.4 4.2 123.8 4.8l114.4 0.6v108.6c0 117.8 0.2 119.6 11 135.4 16 23 47.6 31.8 73.4 20.2z" />
<glyph unicode="&#xe922;" glyph-name="center-align" d="M264.2 774c-13.6-3.2-24.2-16-24.2-29 0-8.6 6-19.2 13.8-24.4l6.8-4.6h502.8l6.8 4.6c18.8 12.6 17.6 38.6-2.4 50.4-6.6 4-10.6 4-251.8 4.4-134.8 0-248-0.4-251.8-1.4zM264.2 654c-13.6-3.2-24.2-16-24.2-29 0-8.6 6-19.2 13.8-24.4l6.8-4.6h502.8l6.8 4.6c18.8 12.6 17.6 38.6-2.4 50.4-6.6 4-10.6 4-251.8 4.4-134.8 0-248-0.4-251.8-1.4zM133.8 529.4c-18.8-12.6-17.6-38.6 2.4-50.4 6.8-4 10.4-4 375.8-4s369 0 375.8 4c20 11.8 21.2 37.8 2.4 50.4l-6.8 4.6h-742.8l-6.8-4.6zM133.8 409.4c-18.8-12.6-17.6-38.6 2.4-50.4 6.8-4 10.4-4 375.8-4s369 0 375.8 4c20 11.8 21.2 37.8 2.4 50.4l-6.8 4.6h-742.8l-6.8-4.6zM253.8 295.4c-18.8-12.6-17.6-38.6 2.4-50.4 6.8-4 10.4-4 255.8-4s249 0 255.8 4c20 11.8 21.2 37.8 2.4 50.4l-6.8 4.6h-502.8l-6.8-4.6zM253.8 175.4c-18.8-12.6-17.6-38.6 2.4-50.4 6.8-4 10.4-4 255.8-4s249 0 255.8 4c20 11.8 21.2 37.8 2.4 50.4l-6.8 4.6h-502.8l-6.8-4.6z" />
<glyph unicode="&#xe923;" glyph-name="right-arrow-removebg-preview" d="M576.922 871.117c-9.011-3.277-9.216-3.482-37.683-31.539-27.034-26.419-32.358-36.659-30.925-58.573 0.614-9.216 2.662-17.613 5.53-23.142 2.867-5.734 43.008-47.309 113.254-117.76l108.954-109.158-692.019-2.048-10.24-4.71c-12.902-5.939-22.528-15.155-28.877-27.443-4.71-9.216-4.915-11.469-4.915-47.923v-38.093l6.554-12.288c6.758-12.698 16.589-21.914 29.696-27.853 7.168-3.277 31.13-3.482 354.714-4.506l346.931-1.024-111.616-111.821c-122.675-122.88-118.374-117.76-118.374-142.95 0-18.637 6.349-29.286 34.202-56.525 13.312-13.107 27.034-25.395 30.31-27.238 9.216-5.12 42.598-4.915 52.224 0.41 9.216 5.12 389.325 385.229 394.445 394.445 5.53 10.24 5.53 43.008 0 53.248-5.12 9.421-385.434 389.53-394.445 394.24-9.421 4.915-37.069 6.349-47.718 2.253z" />
<glyph unicode="&#xe924;" glyph-name="losange-removebg-preview" d="M256 701.867l-253.867-253.867 509.867-509.867 509.867 509.867-253.867 253.867c-139.52 139.52-254.72 253.867-256 253.867s-116.48-114.347-256-253.867zM733.867 667.733l219.733-219.733-220.587-221.013-221.013-220.587-441.6 441.6 219.733 219.733c120.747 120.747 220.587 219.733 221.867 219.733s101.12-98.987 221.867-219.733z" />
</font>
</defs>
</svg>
